<?xml version="1.0" encoding="utf-8"?>
<!-- Generator: Adobe Illustrator 24.3.0, SVG Export Plug-In . SVG Version: 6.00 Build 0)  -->
<svg version="1.1" xmlns="http://www.w3.org/2000/svg" xmlns:xlink="http://www.w3.org/1999/xlink" x="0px" y="0px"
	 viewBox="0 0 500 500" style="enable-background:new 0 0 500 500;" xml:space="preserve">
<style type="text/css">
	.st0{fill:url(#Floor_1_);}
	.st1{opacity:0.28;fill:url(#Shadow_1_);}
	.st2{opacity:0.29;fill:url(#Shadow_2_);}
	.st3{opacity:0.34;fill:url(#Shadow_3_);}
	.st4{fill:#37474F;}
	.st5{fill:#FFFFFF;}
	.st6{fill:#455A64;}
	.st7{fill:#27DEBF;}
	.st8{opacity:0.81;fill:#E0E0E0;}
	.st9{opacity:0.15;}
	.st10{fill:#263238;}
	.st11{opacity:0.9;fill:#FFFFFF;}
	.st12{opacity:0.4;}
	.st13{fill:url(#XMLID_9_);}
	.st14{fill:#F0F0F0;}
	.st15{opacity:0.5;fill:#455A64;}
	.st16{fill:#E0E0E0;}
	.st17{opacity:0.5;}
	.st18{font-family:'Rubik-Medium';}
	.st19{font-size:24.2967px;}
	.st20{opacity:0.1;fill:url(#XMLID_10_);}
	.st21{opacity:0.15;fill:url(#XMLID_11_);}
	.st22{opacity:0.1;fill:url(#XMLID_12_);}
	.st23{opacity:0.1;fill:url(#XMLID_13_);}
	.st24{opacity:0.1;fill:url(#XMLID_14_);}
	.st25{opacity:0.1;fill:url(#XMLID_15_);}
	.st26{opacity:0.1;fill:url(#XMLID_16_);}
	.st27{opacity:0.1;fill:url(#XMLID_17_);}
	.st28{opacity:0.1;fill:url(#XMLID_18_);}
	.st29{opacity:0.1;fill:url(#XMLID_19_);}
	.st30{opacity:0.1;fill:url(#XMLID_20_);}
	.st31{fill:#FFA8A7;}
	.st32{opacity:0.3;}
	.st33{fill:url(#XMLID_21_);}
	.st34{opacity:0.3;fill:url(#XMLID_22_);}
	.st35{fill:#F28F8F;}
	.st36{fill:#FFBDA7;}
	.st37{opacity:0.2;}
	.st38{opacity:0.6;}
	.st39{fill:#E6E6E6;}
	.st40{fill:#F79776;}
	.st41{fill:url(#XMLID_23_);}
	.st42{opacity:0.25;fill:url(#XMLID_24_);}
	.st43{opacity:0.1;}
	.st44{fill:#914F4E;}
	.st45{opacity:0.3;fill:url(#XMLID_25_);}
	.st46{fill:url(#XMLID_26_);}
	.st47{opacity:0.3;fill:url(#XMLID_27_);}
	.st48{opacity:0.3;fill:url(#XMLID_28_);}
	.st49{fill:#783736;}
</style>
<g id="Floor">
	<linearGradient id="Floor_1_" gradientUnits="userSpaceOnUse" x1="19.9403" y1="349.6906" x2="470.0316" y2="349.6906">
		<stop  offset="6.659737e-07" style="stop-color:#B90000"/>
		<stop  offset="0.3027" style="stop-color:#9F0000"/>
		<stop  offset="0.947" style="stop-color:#5D0000"/>
		<stop  offset="1" style="stop-color:#570000"/>
	</linearGradient>
	<ellipse id="Floor_6_" class="st0" cx="244.99" cy="349.69" rx="225.05" ry="129.93"/>
</g>
<g id="Shadows">
	<linearGradient id="Shadow_1_" gradientUnits="userSpaceOnUse" x1="242.128" y1="397.2401" x2="324.8847" y2="397.2401">
		<stop  offset="6.659737e-07" style="stop-color:#B90000"/>
		<stop  offset="0.3027" style="stop-color:#9F0000"/>
		<stop  offset="0.947" style="stop-color:#5D0000"/>
		<stop  offset="1" style="stop-color:#570000"/>
	</linearGradient>
	<ellipse id="Shadow_11_" class="st1" cx="283.51" cy="397.24" rx="41.38" ry="23.89"/>
	<linearGradient id="Shadow_2_" gradientUnits="userSpaceOnUse" x1="349.7804" y1="383.0938" x2="432.5371" y2="383.0938">
		<stop  offset="6.659737e-07" style="stop-color:#B90000"/>
		<stop  offset="0.3027" style="stop-color:#9F0000"/>
		<stop  offset="0.947" style="stop-color:#5D0000"/>
		<stop  offset="1" style="stop-color:#570000"/>
	</linearGradient>
	<ellipse id="Shadow_28_" class="st2" cx="391.16" cy="383.09" rx="41.38" ry="23.89"/>
	<linearGradient id="Shadow_3_" gradientUnits="userSpaceOnUse" x1="123.4422" y1="433.0612" x2="206.1989" y2="433.0612">
		<stop  offset="6.659737e-07" style="stop-color:#B90000"/>
		<stop  offset="0.3027" style="stop-color:#9F0000"/>
		<stop  offset="0.947" style="stop-color:#5D0000"/>
		<stop  offset="1" style="stop-color:#570000"/>
	</linearGradient>
	<ellipse id="Shadow_29_" class="st3" cx="164.82" cy="433.06" rx="41.38" ry="23.89"/>
</g>
<g id="Plants">
	<g id="Plants_1_">
		<g id="XMLID_3168_">
			<path id="XMLID_3172_" class="st4" d="M96.98,354.5c0,0-1.09-25.26-11.67-39.32c-10.59-14.05-23.57-16.08-30.01-12.13
				c-4.69,2.88-4.06,11.44,4.07,17.03c8.13,5.59,23.8,19.81,26.25,29.1L96.98,354.5z"/>
			<g id="XMLID_3169_">
				<path id="XMLID_3170_" class="st5" d="M90.03,350.82c-0.36-0.02-0.63-0.33-0.61-0.68c1.09-22.92-19.02-37.21-24.47-39.78
					c-0.33-0.16-0.47-0.55-0.31-0.87c0.16-0.33,0.55-0.46,0.87-0.31c5.61,2.65,26.34,17.39,25.22,41.03
					c-0.02,0.36-0.32,0.64-0.69,0.62C90.04,350.82,90.03,350.82,90.03,350.82z"/>
			</g>
		</g>
		<g id="XMLID_3162_">
			<path id="XMLID_3167_" class="st6" d="M91.95,346.52c-1.47-0.21-2.9-0.47-3.86-1.54c-1.23-1.36-1.13-3.42-1.7-5.17
				c-0.93-2.86-3.75-4.8-6.69-5.41s-6-0.11-8.92,0.61c-5.9,1.45-11.57-2.18-17.48-1.75c-2.11,0.15-4.25,0.65-5.99,1.87
				c-1.73,1.22-2.98,3.25-2.87,5.36c0.1,1.76,1.12,3.37,2.44,4.55c1.31,1.18,2.91,2,4.48,2.8c1.73,0.88,3.46,1.76,5.19,2.64
				c0.86,0.44,1.73,0.89,2.41,1.56c1.28,1.28,2.17,3.75,1.81,5.52c-0.4,1.98-2.02,3.52-2.51,5.48c-0.63,2.57,0.94,5.32,3.2,6.71
				c2.26,1.39,5.04,1.65,7.68,1.5c2.65-0.15,5.27-0.68,7.92-0.73c1.79-0.03,3.65,0.18,5.16,1.12c1.85,1.15,2.93,3.22,3.63,5.28
				c0.45,1.33,0.8,2.72,1.62,3.86c0.86,1.17,2.16,1.95,3.52,2.45c2.61,0.96,5.65,0.98,8.26-0.02c2.19-0.84,3.26-3.31,4.07-5.45
				c0.82-2.15,1.21-4.71,1.15-6.98c-0.15-5.95-1.49-12.37-4.07-17.74c-1.23-2.56-3.02-5.12-5.72-6.01
				C93.83,346.77,92.88,346.66,91.95,346.52z"/>
			<g id="XMLID_3165_">
				<path id="XMLID_3166_" class="st5" d="M97.68,373.99c-0.24,0-0.47-0.15-0.55-0.39c-6.17-17.69-35.36-33.08-46.04-34.85
					c-0.32-0.05-0.53-0.35-0.48-0.67c0.05-0.32,0.36-0.54,0.67-0.48c10.88,1.8,40.65,17.53,46.95,35.61
					c0.11,0.3-0.05,0.64-0.36,0.74C97.81,373.98,97.74,373.99,97.68,373.99z"/>
			</g>
			<g id="XMLID_3163_">
				<path id="XMLID_3164_" class="st5" d="M71.44,364.3c-0.17,0-0.35-0.08-0.46-0.23c-0.2-0.26-0.15-0.62,0.11-0.82
					c0.27-0.2,6.61-4.99,16.22-5.21h0.01c0.32,0,0.58,0.25,0.58,0.57c0.01,0.32-0.25,0.59-0.57,0.6
					c-9.23,0.21-15.47,4.92-15.53,4.97C71.69,364.26,71.57,364.3,71.44,364.3z"/>
			</g>
		</g>
	</g>
</g>
<g id="Window">
	<g id="XMLID_3538_">
		<g id="XMLID_4068_">
			<path id="XMLID_4261_" class="st6" d="M97.99,387.68c-1.17-0.67-2.12-2.39-2.12-3.83l0-208.4c0-1.44,1.01-3.19,2.26-3.91
				L343.3,30.01c1.25-0.72,3.2-0.76,4.37-0.08c1.17,0.67,2.12,2.39,2.12,3.83l0,208.4c0,1.44-1.01,3.19-2.26,3.91L102.36,387.6
				C101.11,388.32,99.16,388.35,97.99,387.68z"/>
			<path id="XMLID_4259_" class="st7" d="M101.93,387.79c-0.03,0.01-0.06,0.03-0.09,0.03c-0.07,0.04-0.15,0.06-0.22,0.08
				c-0.05,0.02-0.1,0.04-0.17,0.05c-0.09,0.03-0.2,0.06-0.31,0.07c-0.06,0.02-0.14,0.04-0.21,0.04c-0.1,0.02-0.23,0.04-0.34,0.05
				c-0.93,0.1-1.9-0.04-2.59-0.45c-1.18-0.68-2.11-2.39-2.11-3.82l-0.01-181.68l4.24,2.45v181.67c0,1.02,0.51,1.61,1.25,1.61
				c0.1,0,0.2-0.01,0.3-0.04c0.02,0,0.03,0,0.05-0.01C101.78,387.85,101.86,387.83,101.93,387.79z"/>
			<path id="XMLID_2826_" class="st8" d="M101.93,387.79c-0.03,0.01-0.06,0.03-0.09,0.03c-0.07,0.04-0.15,0.06-0.22,0.08
				c-0.05,0.02-0.1,0.04-0.17,0.05c-0.09,0.03-0.2,0.06-0.31,0.07c-0.06,0.02-0.14,0.04-0.21,0.04c-0.1,0.02-0.23,0.04-0.34,0.05
				c-0.93,0.1-1.9-0.04-2.59-0.45c-1.18-0.68-2.11-2.39-2.11-3.82l-0.01-181.68l4.24,2.45v181.67c0,1.02,0.51,1.61,1.25,1.61
				c0.1,0,0.2-0.01,0.3-0.04c0.02,0,0.03,0,0.05-0.01C101.78,387.85,101.86,387.83,101.93,387.79z"/>
			<polygon id="XMLID_2360_" class="st7" points="100.11,204.62 95.87,202.17 95.87,242.52 100.11,244.99 			"/>
			<polygon id="XMLID_2359_" class="st9" points="100.11,204.62 95.87,202.17 95.87,242.52 100.11,244.99 			"/>
			<path id="XMLID_4258_" class="st10" d="M100.76,175.68c-0.41,0.7-0.66,1.5-0.66,2.22v26.72l-4.24-2.45v-26.71
				c0-0.09,0-0.18,0.01-0.27c0.02-0.19,0.05-0.38,0.09-0.56c0.11-0.47,0.31-0.96,0.56-1.4L100.76,175.68z"/>
			<path id="XMLID_4257_" class="st4" d="M349.78,33.75v12.05L170.07,149.56c-1.24,0.72-2.25,0.14-2.25-1.3v-4.56
				c0-1.44-1.01-2.02-2.26-1.3l-54.73,31.6c-1.25,0.72-2.26,2.47-2.26,3.91v4.56c0,1.44-1.01,3.19-2.25,3.91l-6.21,3.58V177.9
				c0-1.44,1.01-3.19,2.25-3.91L347.53,32.45C348.77,31.73,349.78,32.31,349.78,33.75z"/>
			<path id="XMLID_4256_" class="st7" d="M349.79,242.15c0,1.44-1.01,3.19-2.26,3.91L102.36,387.6c-1.24,0.72-2.25,0.14-2.25-1.3
				V189.95l6.21-3.58c1.24-0.72,3.26-11.66,4.51-12.38l53.81-31.07c1.25-0.72,4.19,7.36,5.43,6.64L349.78,45.81v14.67L349.79,242.15
				z"/>
			<path id="XMLID_2824_" class="st11" d="M349.79,242.15c0,1.44-1.01,3.19-2.26,3.91L102.36,387.6c-1.24,0.72-2.25,0.14-2.25-1.3
				V189.95l6.21-3.58c1.24-0.72,3.26-11.66,4.51-12.38l53.81-31.07c1.25-0.72,4.19,7.36,5.43,6.64L349.78,45.81v14.67L349.79,242.15
				z"/>
			<g id="XMLID_3171_" class="st12">
				<path class="st7" d="M348.78,47.54v12.94l0.01,181.67c0,1.08-0.82,2.5-1.76,3.04L101.86,386.73c-0.27,0.16-0.44,0.17-0.5,0.17
					c-0.24,0-0.25-0.51-0.25-0.61V190.53l5.71-3.3c0.89-0.51,1.45-2.26,2.71-6.76c0.57-2.02,1.42-5.06,1.88-5.66L164.77,144
					c0.46,0.52,1.24,1.88,1.72,2.74c1.44,2.54,2.25,3.86,3.41,3.86c0.23,0,0.47-0.06,0.67-0.18L348.78,47.54 M349.78,45.81
					L170.07,149.56c-0.05,0.03-0.11,0.05-0.17,0.05c-1.26,0-3.82-6.73-5.09-6.73c-0.06,0-0.12,0.01-0.17,0.05l-53.81,31.07
					c-1.25,0.72-3.27,11.66-4.51,12.38l-6.21,3.58v196.34c0,1.02,0.51,1.61,1.25,1.61c0.3,0,0.64-0.1,1-0.31l245.17-141.54
					c1.25-0.72,2.26-2.47,2.26-3.91l-0.01-181.67V45.81L349.78,45.81z"/>
			</g>
			<linearGradient id="XMLID_9_" gradientUnits="userSpaceOnUse" x1="100.1071" y1="152.733" x2="349.7804" y2="152.733">
				<stop  offset="6.659737e-07" style="stop-color:#B90000"/>
				<stop  offset="0.3027" style="stop-color:#9F0000"/>
				<stop  offset="0.947" style="stop-color:#5D0000"/>
				<stop  offset="1" style="stop-color:#570000"/>
			</linearGradient>
			<polygon id="XMLID_2357_" class="st13" points="100.11,204.62 100.11,244.99 349.78,100.86 349.78,60.48 			"/>
			<path id="XMLID_4249_" class="st14" d="M349.78,45.81v14.67L100.11,204.62v-14.67l4.64-2.69c1.24-0.72,1.66-1.81,2.25-3.91
				l1.57-5.46c0.5-1.9,1.01-3.19,2.26-3.91l53.81-31.07c1.25-0.72,2.23-0.8,3.18,0.77l1.93,3.5c0.71,1.22,1.06,1.94,2.3,1.22
				L349.78,45.81z"/>
			<g id="XMLID_4245_">
				<path id="XMLID_4248_" class="st7" d="M339.2,41.31c1.57-0.9,2.84-0.17,2.84,1.64s-1.27,4.01-2.84,4.92
					c-1.57,0.9-2.84,0.17-2.84-1.64C336.37,44.42,337.64,42.22,339.2,41.31z"/>
				<path id="XMLID_4247_" class="st7" d="M328.99,47.2c1.57-0.91,2.84-0.17,2.84,1.64c0,1.81-1.27,4.01-2.84,4.92
					c-1.57,0.9-2.84,0.17-2.84-1.64C326.15,50.31,327.42,48.11,328.99,47.2z"/>
				<path id="XMLID_4246_" class="st7" d="M318.77,53.09c1.57-0.91,2.84-0.17,2.84,1.64c0,1.81-1.27,4.01-2.84,4.92
					c-1.57,0.91-2.84,0.17-2.84-1.64C315.93,56.2,317.2,54,318.77,53.09z"/>
			</g>
			<path id="XMLID_4244_" class="st15" d="M110.45,191.01l-3.54,2.04l1.35-2.6c0.12-0.23,0.13-0.51,0.03-0.63
				c-0.1-0.12-0.28-0.04-0.4,0.19l-1.92,3.7c0,0,0,0.01-0.01,0.01c-0.02,0.04-0.04,0.09-0.05,0.14c0,0.02-0.01,0.03-0.02,0.04
				c-0.02,0.06-0.02,0.13-0.02,0.19c0,0.06,0.01,0.12,0.02,0.16c0,0.01,0.01,0.02,0.02,0.03c0.01,0.03,0.03,0.06,0.05,0.08
				c0,0,0,0.01,0.01,0.01l1.92,1.48c0.05,0.04,0.12,0.04,0.19,0c0.08-0.05,0.16-0.14,0.21-0.27c0.1-0.24,0.09-0.51-0.03-0.6
				l-1.35-1.04l3.54-2.04c0.16-0.09,0.28-0.36,0.28-0.6C110.74,191.04,110.61,190.92,110.45,191.01z"/>
			<path id="XMLID_4223_" class="st15" d="M113.41,189.3l3.54-2.04l-1.35-1.04c-0.12-0.09-0.13-0.36-0.03-0.6
				c0.1-0.24,0.28-0.36,0.4-0.27l1.92,1.48c0,0,0,0.01,0.01,0.01c0.02,0.02,0.04,0.05,0.05,0.08c0,0.01,0.01,0.02,0.02,0.03
				c0.02,0.05,0.02,0.1,0.02,0.16c0,0.06-0.01,0.13-0.02,0.19c0,0.02-0.01,0.03-0.02,0.04c-0.01,0.05-0.03,0.09-0.05,0.14
				c0,0,0,0.01-0.01,0.01l-1.92,3.7c-0.05,0.1-0.12,0.18-0.19,0.22c-0.08,0.05-0.16,0.04-0.21-0.03c-0.1-0.12-0.09-0.41,0.03-0.63
				l1.35-2.6l-3.54,2.04c-0.16,0.09-0.28-0.03-0.28-0.27C113.13,189.66,113.25,189.39,113.41,189.3z"/>
			<path id="XMLID_4222_" class="st15" d="M125.03,179.1c-0.02-0.21-0.21-0.19-0.3,0.05l-0.49,1.19c-0.83-0.09-1.83,0.72-2.51,2.15
				c-0.88,1.86-0.88,4.05,0,4.9c0.44,0.42,1.01,0.43,1.59,0.09c0.58-0.33,1.15-1,1.59-1.93c0.11-0.24,0.11-0.51,0-0.62
				c-0.11-0.11-0.29,0-0.4,0.23c-0.65,1.38-1.72,2-2.38,1.37c-0.65-0.63-0.65-2.27,0-3.66c0.47-0.99,1.14-1.57,1.72-1.61l-0.37,0.89
				c-0.09,0.23-0.01,0.45,0.14,0.35l1.44-0.94c0.1-0.07,0.18-0.25,0.16-0.4L125.03,179.1z"/>
			<path id="XMLID_4221_" class="st15" d="M163.09,149.62l1.29-2.73c0.15-0.32,0.15-0.7,0-0.85c-0.15-0.15-0.4,0-0.55,0.32
				l-1.29,2.73l-1.29-1.24c-0.15-0.15-0.4,0-0.55,0.32c-0.15,0.32-0.15,0.7,0,0.85l1.29,1.24l-1.29,2.73c-0.15,0.32-0.15,0.7,0,0.85
				c0.08,0.07,0.18,0.07,0.28,0.02c0.1-0.06,0.2-0.17,0.28-0.34l1.29-2.73l1.29,1.24c0.08,0.07,0.18,0.07,0.28,0.02
				c0.1-0.06,0.2-0.17,0.28-0.34c0.15-0.32,0.15-0.7,0-0.85L163.09,149.62z"/>
			<path id="XMLID_4220_" class="st5" d="M129.73,182.46v-4.56c0-1.44,1.01-3.19,2.26-3.91L334.83,56.94
				c1.25-0.72,2.26-0.14,2.26,1.3l0,4.56c0,1.44-1.01,3.19-2.26,3.91L131.98,183.77C130.74,184.49,129.73,183.9,129.73,182.46z"/>
			<g id="XMLID_4216_">
				<path id="XMLID_4217_" class="st16" d="M331.76,66.97c-0.06,0-0.12-0.01-0.17-0.03c-0.16-0.07-0.32-0.26-0.28-0.58l0.23-1.89
					c0-0.01,0-0.01,0-0.02l-0.91-0.66c-0.13-0.09-0.2-0.24-0.2-0.43c0-0.27,0.13-0.56,0.34-0.71l1.32-1.02
					c0.03-0.02,0.07-0.08,0.09-0.15l0.59-1.94c0.1-0.32,0.33-0.55,0.58-0.56c0.18-0.02,0.35,0.09,0.43,0.26v0l0.53,1.14l1.2-0.46
					c0.18-0.07,0.37-0.03,0.49,0.11c0.17,0.19,0.17,0.51,0.02,0.81l-0.96,1.8c-0.04,0.07-0.05,0.13-0.04,0.17l0.23,1.63
					c0.04,0.29-0.1,0.57-0.26,0.73c-0.13,0.13-0.29,0.2-0.45,0.18l-1.18-0.15l-1.15,1.54C332.07,66.9,331.91,66.97,331.76,66.97z
					 M331.02,63.33l0.91,0.66c0.15,0.11,0.22,0.31,0.19,0.54l-0.19,1.56l0.99-1.26c0.14-0.18,0.32-0.27,0.51-0.25l1.19,0.15
					c-0.02-0.02,0.05-0.16,0.04-0.24l-0.23-1.63c-0.02-0.17,0.02-0.36,0.11-0.53l0.96-1.8l-1.1,0.42c-0.23,0.09-0.46-0.01-0.57-0.23
					l-0.49-1.05c0,0.01,0,0.01-0.01,0.02l-0.59,1.94c-0.06,0.18-0.16,0.35-0.3,0.45l-1.32,1.02
					C331.07,63.16,331.03,63.27,331.02,63.33z"/>
			</g>
			<g id="XMLID_4071_" class="st17">
				<g id="XMLID_4207_">
					<path id="XMLID_4214_" class="st6" d="M339.75,56.38c-0.27,0-0.53-0.14-0.68-0.39c-0.22-0.37-0.09-0.85,0.29-1.07l6.35-3.67
						c0.38-0.22,0.85-0.09,1.07,0.29c0.22,0.37,0.09,0.85-0.29,1.07l-6.35,3.67C340.02,56.35,339.88,56.38,339.75,56.38z"/>
				</g>
				<g id="XMLID_4201_">
					<path id="XMLID_4203_" class="st6" d="M339.75,60.05c-0.27,0-0.53-0.14-0.68-0.39c-0.22-0.37-0.09-0.85,0.29-1.07l6.35-3.67
						c0.38-0.22,0.85-0.09,1.07,0.29c0.22,0.37,0.09,0.85-0.29,1.07l-6.35,3.67C340.02,60.01,339.88,60.05,339.75,60.05z"/>
				</g>
				<g id="XMLID_4072_">
					<path id="XMLID_4073_" class="st6" d="M339.75,63.71c-0.27,0-0.53-0.14-0.68-0.39c-0.22-0.37-0.09-0.85,0.29-1.07l6.35-3.67
						c0.38-0.22,0.85-0.09,1.07,0.29c0.22,0.37,0.09,0.85-0.29,1.07l-6.35,3.67C340.02,63.68,339.88,63.71,339.75,63.71z"/>
				</g>
			</g>
			<polygon id="XMLID_4070_" class="st16" points="100.11,189.95 100.11,204.62 95.87,202.17 95.87,187.51 			"/>
		</g>
		<text id="XMLID_3803_" transform="matrix(0.6495 -0.375 0 1 270.8405 135.6673)" class="st5 st18 st19">About us</text>
		<g id="XMLID_3542_">
			<linearGradient id="XMLID_10_" gradientUnits="userSpaceOnUse" x1="110.739" y1="290.8045" x2="179.9938" y2="290.8045">
				<stop  offset="0.0229" style="stop-color:#F28F8F"/>
				<stop  offset="1" style="stop-color:#FFA8A7"/>
			</linearGradient>
			<polygon id="XMLID_3210_" class="st20" points="110.94,254.51 179.99,214.64 179.99,327.21 110.74,366.97 			"/>
			<g id="XMLID_3281_">
				<linearGradient id="XMLID_11_" gradientUnits="userSpaceOnUse" x1="192.1789" y1="187.5469" x2="281.5448" y2="187.5469">
					<stop  offset="0.0229" style="stop-color:#F28F8F"/>
					<stop  offset="1" style="stop-color:#FFA8A7"/>
				</linearGradient>
				<path id="XMLID_3211_" class="st21" d="M195.21,207.93l83.3-48.09c1.67-0.97,3.03-0.23,3.03,1.64c0,1.87-1.35,4.18-3.02,5.15
					l-83.32,48.64c-1.67,0.97-3.02,0.2-3.02-1.74l0-0.35C192.18,211.25,193.54,208.9,195.21,207.93z"/>
				<linearGradient id="XMLID_12_" gradientUnits="userSpaceOnUse" x1="192.1784" y1="185.0556" x2="334.3497" y2="185.0556">
					<stop  offset="0.0229" style="stop-color:#F28F8F"/>
					<stop  offset="1" style="stop-color:#FFA8A7"/>
				</linearGradient>
				<path id="XMLID_3279_" class="st22" d="M194.34,222.5l137.84-79.58c1.2-0.69,2.16-0.2,2.16,1.1c0,1.3-0.97,2.9-2.17,3.6
					l-137.84,79.58c-1.2,0.69-2.17,0.2-2.17-1.1C192.18,224.8,193.15,223.19,194.34,222.5z"/>
				<linearGradient id="XMLID_13_" gradientUnits="userSpaceOnUse" x1="192.1784" y1="194.4722" x2="334.3497" y2="194.4722">
					<stop  offset="0.0229" style="stop-color:#F28F8F"/>
					<stop  offset="1" style="stop-color:#FFA8A7"/>
				</linearGradient>
				<path id="XMLID_3283_" class="st23" d="M194.34,231.92l137.84-79.58c1.2-0.69,2.16-0.2,2.16,1.1c0,1.3-0.97,2.91-2.17,3.6
					l-137.84,79.58c-1.2,0.69-2.17,0.2-2.17-1.1S193.15,232.61,194.34,231.92z"/>
				<linearGradient id="XMLID_14_" gradientUnits="userSpaceOnUse" x1="192.1784" y1="203.8889" x2="334.3497" y2="203.8889">
					<stop  offset="0.0229" style="stop-color:#F28F8F"/>
					<stop  offset="1" style="stop-color:#FFA8A7"/>
				</linearGradient>
				<path id="XMLID_3291_" class="st24" d="M194.34,241.33l137.84-79.58c1.2-0.69,2.16-0.2,2.16,1.1c0,1.3-0.97,2.9-2.17,3.6
					l-137.84,79.58c-1.2,0.69-2.17,0.2-2.17-1.1C192.18,243.63,193.15,242.03,194.34,241.33z"/>
				<linearGradient id="XMLID_15_" gradientUnits="userSpaceOnUse" x1="192.1784" y1="213.3056" x2="334.3497" y2="213.3056">
					<stop  offset="0.0229" style="stop-color:#F28F8F"/>
					<stop  offset="1" style="stop-color:#FFA8A7"/>
				</linearGradient>
				<path id="XMLID_3292_" class="st25" d="M194.34,250.75l137.84-79.58c1.2-0.69,2.16-0.2,2.16,1.1c0,1.3-0.97,2.9-2.17,3.6
					l-137.84,79.58c-1.2,0.69-2.17,0.2-2.17-1.1C192.18,253.05,193.15,251.44,194.34,250.75z"/>
				<linearGradient id="XMLID_16_" gradientUnits="userSpaceOnUse" x1="192.1784" y1="234.5302" x2="292.6803" y2="234.5302">
					<stop  offset="0.0229" style="stop-color:#F28F8F"/>
					<stop  offset="1" style="stop-color:#FFA8A7"/>
				</linearGradient>
				<path id="XMLID_3293_" class="st26" d="M194.34,260.17l96.17-55.97c1.2-0.69,2.16-0.2,2.16,1.1c0,1.3-0.97,2.9-2.17,3.6
					l-96.17,55.97c-1.2,0.69-2.17,0.2-2.17-1.1S193.15,260.86,194.34,260.17z"/>
				<linearGradient id="XMLID_17_" gradientUnits="userSpaceOnUse" x1="192.1784" y1="241.5556" x2="334.3497" y2="241.5556">
					<stop  offset="0.0229" style="stop-color:#F28F8F"/>
					<stop  offset="1" style="stop-color:#FFA8A7"/>
				</linearGradient>
				<path id="XMLID_3543_" class="st27" d="M194.34,279l137.84-79.58c1.2-0.69,2.16-0.2,2.16,1.1c0,1.3-0.97,2.9-2.17,3.6
					l-137.84,79.58c-1.2,0.69-2.17,0.2-2.17-1.1S193.15,279.69,194.34,279z"/>
				<linearGradient id="XMLID_18_" gradientUnits="userSpaceOnUse" x1="192.1784" y1="250.9722" x2="334.3497" y2="250.9722">
					<stop  offset="0.0229" style="stop-color:#F28F8F"/>
					<stop  offset="1" style="stop-color:#FFA8A7"/>
				</linearGradient>
				<path id="XMLID_3544_" class="st28" d="M194.34,288.42l137.84-79.58c1.2-0.69,2.16-0.2,2.16,1.1c0,1.3-0.97,2.91-2.17,3.6
					l-137.84,79.58c-1.2,0.69-2.17,0.2-2.17-1.1S193.15,289.11,194.34,288.42z"/>
				<linearGradient id="XMLID_19_" gradientUnits="userSpaceOnUse" x1="192.1784" y1="260.3889" x2="334.3497" y2="260.3889">
					<stop  offset="0.0229" style="stop-color:#F28F8F"/>
					<stop  offset="1" style="stop-color:#FFA8A7"/>
				</linearGradient>
				<path id="XMLID_3553_" class="st29" d="M194.34,297.83l137.84-79.58c1.2-0.69,2.16-0.2,2.16,1.1c0,1.3-0.97,2.9-2.17,3.6
					l-137.84,79.58c-1.2,0.69-2.17,0.2-2.17-1.1C192.18,300.13,193.15,298.53,194.34,297.83z"/>
				<linearGradient id="XMLID_20_" gradientUnits="userSpaceOnUse" x1="192.1784" y1="294.8169" x2="247.1513" y2="294.8169">
					<stop  offset="0.0229" style="stop-color:#F28F8F"/>
					<stop  offset="1" style="stop-color:#FFA8A7"/>
				</linearGradient>
				<path id="XMLID_3554_" class="st30" d="M194.34,307.25l50.64-29.56c1.2-0.69,2.16-0.2,2.16,1.1c0,1.3-0.97,2.9-2.17,3.6
					l-50.64,29.56c-1.2,0.69-2.17,0.2-2.17-1.1S193.15,307.94,194.34,307.25z"/>
			</g>
		</g>
	</g>
</g>
<g id="Character_3">
	<g id="XMLID_3461_">
		<g id="XMLID_3988_">
			<path id="XMLID_3991_" class="st31" d="M378.54,253.2c7.33-23.78,14.46-39.45,7.19-44.3l0,0c-6.77,1.25-9.8,4.6-11.24,13.52
				c-1.51,9.36-4.64,22.39-6.47,29.92c-1.46,6.01-4.31,13.56-6.75,18.16c-0.43,0.81-1.16,1.43-2,1.76
				c-2.26,0.88-3.34,2.04-5.18,3.35c-1.44,1.03-2.5,1.15-2.44,1.58c0.08,0.56,0.74,1.56,2.26,1.39c0.77-0.08,1.83-0.48,3.15-1.01
				c0,0-1.33,3.58-3.95,5.76c-3.54,2.96-3.01,5.93,2.69,6.27c2.04,0.12,6.78-1.74,11.16-9.21c1.26-2.15,2.73-5.68,3.91-8.61
				C373.94,264.14,377.07,257.96,378.54,253.2z"/>
			<path id="XMLID_3990_" class="st7" d="M387.03,208.62c0,0-5.64-0.29-9.05,3.47c-3.42,3.77-7.41,26.29-7.41,26.29
				s3.74,5.14,13.61,3.04L387.03,208.62z"/>
			<path id="XMLID_3989_" class="st32" d="M387.03,208.62c0,0-5.64-0.29-9.05,3.47c-3.42,3.77-7.41,26.29-7.41,26.29
				s3.74,5.14,13.61,3.04L387.03,208.62z"/>
		</g>
		<g id="XMLID_3945_">
			<rect id="XMLID_3987_" x="405.84" y="368.38" class="st31" width="7.57" height="13.5"/>
			<polygon id="XMLID_3986_" class="st31" points="387.16,367.66 379.59,367.93 379.21,353.65 387.16,353.38 			"/>
			<path id="XMLID_3985_" class="st4" d="M414.48,251.5c0,7.53-1.11,68.13-1.11,68.13c0.18,2.17,2.13,6.16,1.7,14.48
				c-0.57,11.31-1.34,41.02-1.34,41.02s-3.68,2.24-8.43,0.17c0,0-7.16-41.15-8.52-52.35c-1.18-9.78-3.19-42.7-3.19-42.7l-4.1,38.28
				c0,0,1.4,5.83,0.94,12.53c-0.35,5.18-2.79,32.17-2.79,32.17s-3.56,2.52-8.74,0.7c0,0-4.31-40.65-4.39-45.4
				c-0.1-5.42,2.52-67.12,2.52-67.12L414.48,251.5z"/>
			<path id="XMLID_3984_" class="st10" d="M405.84,377.99v-1.13c-0.72,0.33-2.41,7.02-5.41,9.87c-2.39,2.27-5.65,4.89-6.47,7.42
				c-0.86,2.63,4.54,4.08,6.77,3.67c2.59-0.48,7.09-2.38,8.21-4.14c1.13-1.76,1.66-4.36,2.57-5.65c0.92-1.29,3.03-2.73,3.53-4.23
				c0.27-0.82-0.05-2.62-0.43-4.14c-0.35-1.39-0.73-2.93-1.19-2.8c0,0.17,0,0.86,0,0.86c-0.55,0.63-2.07,1.26-3.79,1.33
				C408.52,379.1,405.83,378.87,405.84,377.99z"/>
			<path id="XMLID_3983_" class="st10" d="M379.51,365.5c-0.39,0.01-0.71,0.59-1.58,1.57c-1.05,1.18-2.76,2.46-4.45,3.34
				c-2.84,1.48-8.35,3.75-10.84,4.92c-1.56,0.73-1.49,2.69,0.13,3.81c1.61,1.12,5.5,1.92,10.17,0.83c2.54-0.59,5.86-3.04,7.95-2.91
				c2.1,0.13,6.02,0.1,7.57-1.01c1.55-1.11,0.93-3.48,0.49-5.52c-0.48-2.23-1.07-5.69-1.78-5.54v0.77
				c-0.91,1.44-5.61,2.02-7.61,0.96L379.51,365.5z"/>
			<path id="XMLID_3980_" class="st10" d="M393.59,280.26c0,0-6.05-1.78-10.54-6.3c0,0,2.03,3.97,8.08,7.66l-1.29,34.18
				L393.59,280.26z"/>
		</g>
		<g id="XMLID_3920_">
			<linearGradient id="XMLID_21_" gradientUnits="userSpaceOnUse" x1="376.0666" y1="240.0576" x2="416.063" y2="240.0576">
				<stop  offset="0.0229" style="stop-color:#F28F8F"/>
				<stop  offset="1" style="stop-color:#FFA8A7"/>
			</linearGradient>
			<path id="XMLID_3931_" class="st33" d="M410.54,210.42c0,0,5.93,0.54,5.5,11.83l-1.31,17.98l0.04,26.98
				c-5.57,6.31-30.25,5.85-38.7-0.51c0,0,0.96-31.93,1.53-44.22c0.41-8.74,2.42-13.13,11-14.1l10.56,0.46L410.54,210.42z"/>
			<linearGradient id="XMLID_22_" gradientUnits="userSpaceOnUse" x1="389.1859" y1="221.3357" x2="393.7122" y2="221.3357">
				<stop  offset="0.0229" style="stop-color:#F28F8F"/>
				<stop  offset="1" style="stop-color:#FFA8A7"/>
			</linearGradient>
			<polygon id="XMLID_3921_" class="st34" points="393.71,216.34 392.35,225.82 389.19,225.76 392.76,226.33 			"/>
		</g>
		<g id="XMLID_3860_">
			<path id="XMLID_3880_" class="st10" d="M401.61,184.99c0,6.48-5.05,11.74-11.27,11.74s-10.99-5.26-11.27-11.74
				c-0.5-11.47,5.05-11.74,11.27-11.74S401.61,178.5,401.61,184.99z"/>
			<g id="XMLID_3871_">
				<path id="XMLID_3879_" class="st10" d="M408.03,190.81c0,0-1.73,8.46-2.42,9.85c-0.69,1.39-2.13,1.79-2.13,1.79l0.12-5.95
					L408.03,190.81z"/>
				<path id="XMLID_3878_" class="st10" d="M405.86,178.69c0,0,1.24-0.31,2.56,1.75c1.13,1.76,1.39,5.73-0.39,10.37l-3.26,0.39
					L405.86,178.69z"/>
				<path id="XMLID_3877_" class="st31" d="M403.8,191.2c0.65,0.41,1.58-0.9,2.39-1.78c0.81-0.88,3.43-2.08,4.75,0.8
					c1.34,2.93-1.16,6.81-3.23,7.49c-3.57,1.17-4.1-1.22-4.1-1.22l-0.27,13.4c-4.74,7.32-15.46,7.06-11.6-0.35l0.01-4.08
					c0,0-3.23,0.51-4.81,0.26c-2.62-0.42-4.27-2.58-5.07-5.54c-1.28-4.75-1.76-8.59-0.68-17.93c1.19-10.24,12.62-10.35,18.8-6.3
					C406.15,180,403.8,191.2,403.8,191.2z"/>
				<path id="XMLID_3876_" class="st10" d="M403.39,206.89c0,0-1.67,3.6-4.64,5.81c-2.73,2.03-5.61,2.38-5.61,2.38
					s2.78,1.84,3.96,4.45c1.18,2.61,9.51-4.57,9.44-9.65c0,0-1.31-5.11-3.1-5.44L403.39,206.89z"/>
				<path id="XMLID_3875_" class="st10" d="M393.15,215.08c0,0-2.57-1.28-1.42-5.55l0.01-4.08l-1.13,0.15
					c-0.88,0.79-2.26,2.65-2.71,4.69c-0.26,1.17-0.89,7.08,0.24,8.26C389.17,219.63,390.84,215.4,393.15,215.08z"/>
				<path id="XMLID_3874_" class="st10" d="M399.42,180.04c0.3-0.04,0.61-0.07,0.88,0.06c0.97,0.44,1.18,3.45,1.35,4.32
					c0.57,2.93,1.05,7.9,2.15,7.93c0.33,0.01,1.58-2.15,2.39-2.92c1.13-1.07-0.33-10.73-0.33-10.73s1.08-2.4-1.09-4.89
					c-2.03-2.32-5.21-2.84-8.12-3c-3.43-0.19-6.91,0.07-10.29-0.68c-1.07-0.24-2.13-0.58-3.22-0.69c-0.1-0.01-0.21-0.02-0.29,0.05
					c-0.11,0.09-0.09,0.26-0.07,0.4c0.21,1.01,0.57,1.99,1.07,2.9c-2.01-0.16-4-0.55-5.93-1.17c-0.11-0.04-0.23-0.07-0.34-0.04
					c-0.23,0.07-0.27,0.37-0.25,0.61c0.14,2.43,1.29,6.08,3.26,7.51c1.54,1.12,3.95,1.8,5.85,1.85
					C391.74,181.68,395.03,180.56,399.42,180.04z"/>
				<path id="XMLID_3873_" class="st10" d="M405.86,179.2l3.95-2.21c-0.56-1.18-1.9-1.64-2.99-1.03
					C405.73,176.57,405.3,178.02,405.86,179.2z"/>
				<path id="XMLID_3872_" class="st35" d="M391.74,205.46c0,0,5.86-1.23,7.9-2.36c1.37-0.76,2.5-2.07,2.83-2.92
					c0,0-0.38,1.81-1.61,3.44c-1.5,1.99-9.12,3.46-9.12,3.46L391.74,205.46z"/>
			</g>
			<g id="XMLID_3861_">
				<path id="XMLID_3870_" class="st10" d="M393.15,189.68c0,0.7,0.53,1.27,1.17,1.27c0.65,0,1.17-0.57,1.17-1.27
					c0-0.7-0.53-1.27-1.17-1.27C393.67,188.4,393.15,188.97,393.15,189.68z"/>
				<path id="XMLID_3869_" class="st10" d="M395.03,184.62l2.51,1.44c0.37-0.75,0.11-1.68-0.58-2.08
					C396.26,183.58,395.4,183.86,395.03,184.62z"/>
				<path id="XMLID_3868_" class="st35" d="M392.27,198.12l-2.68,1.05c0.27,0.8,1.08,1.21,1.82,0.92
					C392.15,199.8,392.53,198.92,392.27,198.12z"/>
				<path id="XMLID_3864_" class="st10" d="M382.38,185.69l2.29-1.84c-0.47-0.68-1.36-0.82-1.99-0.32
					C382.05,184.04,381.91,185.01,382.38,185.69z"/>
				<path id="XMLID_3863_" class="st10" d="M383.39,189.33c0,0.7,0.53,1.27,1.17,1.27c0.65,0,1.17-0.57,1.17-1.27
					c0-0.7-0.53-1.27-1.17-1.27C383.91,188.06,383.39,188.63,383.39,189.33z"/>
				<polygon id="XMLID_3862_" class="st35" points="389.67,188.35 389.53,195.76 385.32,194.79 				"/>
			</g>
		</g>
		<g id="XMLID_3463_">
			<path id="XMLID_3856_" class="st7" d="M422.06,195.8c1.69-2.24,5.11,2.73,6.69,6.16c1.58,3.43,1.6,5.37,0.31,6.73
				c-1.29,1.36-3.75,0.54-6.2-2.71C420.4,202.73,421.09,197.45,422.06,195.8z"/>
			<path id="XMLID_3854_" class="st17" d="M422.06,195.8c1.69-2.24,5.11,2.73,6.69,6.16c1.58,3.43,1.6,5.37,0.31,6.73
				c-1.29,1.36-3.75,0.54-6.2-2.71C420.4,202.73,421.09,197.45,422.06,195.8z"/>
			<g id="XMLID_3852_">
				<path id="XMLID_3853_" class="st31" d="M433.95,196.46c-5.96,14.04-14.35,21.89-18.1,30.9c-4.92-0.33-8.74-12.2-5.08-17.27
					c0,0,14.38-15.57,15.69-21.69c1.16-5.43,2.71-14.39,2.57-18.98c-0.02-0.77-0.36-1.47-0.88-2.04c-1.51-1.62-1.51-2.93-2.48-4.72
					c-0.76-1.4-1.58-1.92-1.35-2.24c0.3-0.4,1.26-0.93,2.45-0.18c0.6,0.38,0.99,0.82,1.86,1.78c0,0,0.39-2.47-0.85-5.26
					c-1.67-3.78-1.27-5.7,3.83-4.36c3.19,0.84,5.2,3.5,5.68,11.18c0.14,2.21,0.32,6.79,0.06,9.59c-0.55,5.91-0.91,12.07-1.64,16.96
					C435.38,192.31,434.81,194.44,433.95,196.46z"/>
			</g>
			<path id="XMLID_3683_" class="st7" d="M409.32,210.26l12.69-14.5c0,0-1.51,3.54,1.79,8.68c3.3,5.14,5.26,4.26,5.26,4.26
				s-7.49,10.93-9.5,14.59c-2.01,3.66-4.09,6.74-4.09,6.74s-0.5,1.29-2.37,1.29C411.24,231.32,406.31,223.06,409.32,210.26z"/>
			<path id="XMLID_3464_" class="st32" d="M409.32,210.26l12.69-14.5c0,0-1.51,3.54,1.79,8.68c3.3,5.14,5.26,4.26,5.26,4.26
				s-7.49,10.93-9.5,14.59c-2.01,3.66-4.09,6.74-4.09,6.74s-0.5,1.29-2.37,1.29C411.24,231.32,406.31,223.06,409.32,210.26z"/>
		</g>
	</g>
</g>
<g id="Character_2">
	<g id="XMLID_3992_">
		<g id="XMLID_4622_">
			<g id="XMLID_4625_">
				<polygon id="XMLID_4626_" class="st35" points="306.41,242.85 312.39,250.8 305.97,258.15 297.7,248.48 				"/>
			</g>
			<g id="XMLID_4623_">
				<path id="XMLID_4624_" class="st6" d="M286.87,224.77c5.21,0.24,7.69,1.05,10.42,4.26c2.66,3.14,16.37,22.94,16.37,22.94
					s-2.41,6.76-7.69,6.18l-9.59-9.89L286.87,224.77z"/>
			</g>
		</g>
		<g id="XMLID_4609_">
			<g id="XMLID_4617_">
				<path id="XMLID_4619_" class="st10" d="M261.31,389.89c-0.17,1.26-0.53,2.72-0.6,6.27c-0.07,3.81-0.77,5.16-0.86,8.28
					c-0.11,3.57,0.51,4.91,1.96,6.91c1.45,2.01,5.25,3.83,6.86,0.44c1.63-3.43,1.4-5.61,0.89-9.12c-0.53-3.62-0.6-5.62-0.91-8.38
					c-0.27-2.43-0.6-4.28-0.6-4.28L261.31,389.89z"/>
				<path id="XMLID_4618_" class="st36" d="M272.12,359.95l-12.54-0.23c0.19,8.37,1.52,22.31,1.73,30.17
					c0.04,1.48-0.04,11.49,0.52,14.53c0.84,4.57,6.26,3.95,6.55,1.22c0.29-2.74-0.35-14.43-0.33-15.63
					c-0.05-5.04,2.31-18.19,3.55-27.23C271.66,362.34,272.06,360.38,272.12,359.95z"/>
			</g>
			<g id="XMLID_4612_">
				<path id="XMLID_4614_" class="st10" d="M290.55,383.38c0,0-0.65,0.04-0.75,0.57c-0.12,0.63-0.15,1.62-0.41,2.65
					c-0.36,1.43-0.66,3.8-0.45,4.97c0.22,1.17,2.89,2.91,4.71,3.22c1.83,0.31,4.4,2.11,5.83,3.46c1.75,1.65,5.53,3.21,8.11,3.19
					c3.05-0.02,5.17-1.01,6.18-2.65c1.05-1.7-0.91-1.83-4.4-4.09c-0.79-0.51-1.69-1.09-2.7-1.75c-5.52-3.6-7.54-5.54-9.1-9.14
					L290.55,383.38z"/>
				<path id="XMLID_4613_" class="st36" d="M297.62,381.42c-0.09-2.59,1.24-21.69,1.24-21.69l-10.79,1.21
					c2.55,15.23,2.76,20.41,2.47,22.63l0,0c-0.02,0.06-0.07,0.27-0.07,0.64c0.01,2.96,3.35,4.55,5.95,6.53
					c1.03,0.78,3.67,3.18,6.77,4.23c2,0.68,5.71,0.94,6.19-0.28c-3.17-2.42-7.48-5.58-10-8.35
					C298.17,385.02,297.71,384.01,297.62,381.42z"/>
			</g>
			<path id="XMLID_4611_" class="st7" d="M262.48,273.36c-5.89,12.86,0.21,58.14,0.21,58.14c-0.18,2.09-2.56,6.19-3.45,15.37
				c-1.05,10.85,1.94,39.89,1.94,39.89s2.87,2.14,7.02,0.15c0,0,7.59-42.67,8.96-53.46c1.19-9.41,3.47-30.11,3.47-30.11l6.48,30.06
				c0,0-1.66,5.27-2.05,9.29c-0.61,6.35,5.56,38.19,5.56,38.19s2.89,1.53,7-0.14c0,0,2.74-41.14,3.31-48.78
				c0.96-12.84-2.45-52.89-4.8-60.49L262.48,273.36z"/>
			<path id="XMLID_3191_" class="st17" d="M262.48,273.36c-5.89,12.86,0.21,58.14,0.21,58.14c-0.18,2.09-2.56,6.19-3.45,15.37
				c-1.05,10.85,1.94,39.89,1.94,39.89s2.87,2.14,7.02,0.15c0,0,7.59-42.67,8.96-53.46c1.19-9.41,3.47-30.11,3.47-30.11l6.48,30.06
				c0,0-1.66,5.27-2.05,9.29c-0.61,6.35,5.56,38.19,5.56,38.19s2.89,1.53,7-0.14c0,0,2.74-41.14,3.31-48.78
				c0.96-12.84-2.45-52.89-4.8-60.49L262.48,273.36z"/>
			<path id="XMLID_4610_" class="st37" d="M280.63,303.34l1.91-11.94c0,0,8.08-1.67,11.75-5.12c0,0-3.85,4.79-9.56,6.35l-2.15,9.19
				l3.75,27.84L280.63,303.34z"/>
		</g>
		<g id="XMLID_4360_">
			<g id="XMLID_4362_">
				<path id="XMLID_4377_" class="st7" d="M265.5,233.43l8.01,2.09v-16.93l0,0c-4.42-1.15-8.01,1.4-8.01,5.7V233.43z"/>
				<path id="XMLID_6_" class="st38" d="M265.5,233.43l8.01,2.09v-16.93l0,0c-4.42-1.15-8.01,1.4-8.01,5.7V233.43z"/>
				<path id="XMLID_4608_" class="st7" d="M281.34,220.99l-2.87-0.07c-8.76-0.2-15.7-7.76-15.51-16.88l0,0
					c-0.05-9.94,7.69-18.04,17.24-18.09l0,0c9.54-0.05,17.32,7.96,17.37,17.9l-0.02,1.03C297.33,213.99,290.08,221.19,281.34,220.99
					z"/>
				<path id="XMLID_5_" class="st38" d="M281.34,220.99l-2.87-0.07c-8.76-0.2-15.7-7.76-15.51-16.88l0,0
					c-0.05-9.94,7.69-18.04,17.24-18.09l0,0c9.54-0.05,17.32,7.96,17.37,17.9l-0.02,1.03C297.33,213.99,290.08,221.19,281.34,220.99
					z"/>
				<path id="XMLID_2865_" class="st7" d="M267.93,190.12c-0.32-1.24-1.56-1.94-2.77-1.56l0.77,2.96c-0.16-0.2-0.35-0.37-0.58-0.5
					c-1.08-0.63-2.42-0.2-3.01,0.96l3.9,2.3c0.2-0.41,0.28-0.85,0.26-1.28C267.6,192.54,268.24,191.3,267.93,190.12z"/>
				<path id="XMLID_1_" class="st38" d="M267.93,190.12c-0.32-1.24-1.56-1.94-2.77-1.56l0.77,2.96c-0.16-0.2-0.35-0.37-0.58-0.5
					c-1.08-0.63-2.42-0.2-3.01,0.96l3.9,2.3c0.2-0.41,0.28-0.85,0.26-1.28C267.6,192.54,268.24,191.3,267.93,190.12z"/>
				<g id="XMLID_4372_">
					<path id="XMLID_4374_" class="st4" d="M272.66,225.46c0,0-5.79,0.82-8.01,1.54c3.1,7.6-1.76,19.35-1.76,19.35l4.59,14.13
						c-3.16,6.49-5.78,9.71-6.85,14.99c2.92,5.7,23.53,11.14,36.95,0.75c0,0-0.43-14.43-2.14-22.84c4.4-8.57,3.68-11.09,2.78-14.08
						c-2.09-6.95-6.31-9.63-11.34-14.52l-3.03-0.32L272.66,225.46z"/>
				</g>
				<path id="XMLID_1928_" class="st10" d="M268.01,266.13c2.49-2.55,7.77-3.28,7.77-3.28l-4.84-2.76l-5.43-13.1
					c3.77-7.24,3.26-14.41,3.26-14.41l-3.11-0.75c0.38,6.93-2.76,14.52-2.76,14.52l4.59,14.13c-3.16,6.49-5.78,9.71-6.85,14.99
					c2,3.9,12.29,7.68,22.88,6.35C269.31,280.86,265.61,268.6,268.01,266.13z"/>
				<g id="XMLID_3196_">
					<path id="XMLID_3198_" class="st39" d="M282.35,281.93c0.19-0.02,0.39-0.04,0.58-0.06
						C282.77,281.87,282.58,281.89,282.35,281.93z"/>
				</g>
				<g id="XMLID_4363_">
					<path id="XMLID_4371_" class="st36" d="M291.13,194.83c1.72,1.58,3.87,5.01,3.7,15.04c-0.15,8.5-2.78,10.61-4.1,11.22
						c-1.32,0.61-3.89,0.26-6.38-0.16l-0.03,3.52c0,0,3.28,3.64,3.08,5.98c-0.2,2.34-4.67,3.31-7.9,1.04
						c-3.23-2.27-5.98-6.05-5.98-6.05l-0.03-10.69c0,0-1.46,1.49-3.95-0.76c-2.06-1.86-2.77-5-1.18-6.7
						c1.59-1.7,4.55-1.25,5.69,1.15c0,0,5.68-0.47,10.92-3.21C289.6,202.78,291.46,198.39,291.13,194.83z"/>
					<path id="XMLID_4370_" class="st10" d="M284.34,207.92c0.03,0.61-0.4,1.13-0.96,1.16c-0.57,0.03-1.05-0.44-1.08-1.05
						c-0.03-0.61,0.4-1.13,0.97-1.16C283.83,206.84,284.31,207.31,284.34,207.92z"/>
					<path id="XMLID_4369_" class="st40" d="M284.73,215.04l2.67,0.87c-0.22,0.8-0.99,1.25-1.73,1.01
						C284.93,216.68,284.51,215.84,284.73,215.04z"/>
					<path id="XMLID_4368_" class="st10" d="M293.96,204.09l-2.42-0.83c0.18-0.7,0.87-1.08,1.54-0.86
						C293.74,202.63,294.14,203.39,293.96,204.09z"/>
					<path id="XMLID_4367_" class="st7" d="M274.05,207.42l-0.03,3.59c0.96,0.05,1.74-0.72,1.75-1.72
						C275.78,208.3,275.01,207.46,274.05,207.42z"/>
					<path id="XMLID_7_" class="st38" d="M274.05,207.42l-0.03,3.59c0.96,0.05,1.74-0.72,1.75-1.72
						C275.78,208.3,275.01,207.46,274.05,207.42z"/>
					<path id="XMLID_4366_" class="st10" d="M293.12,207.57c0.03,0.61-0.4,1.13-0.97,1.16c-0.57,0.03-1.05-0.44-1.08-1.05
						c-0.03-0.61,0.4-1.13,0.96-1.16C292.6,206.49,293.09,206.96,293.12,207.57z"/>
					<polygon id="XMLID_4365_" class="st40" points="287.42,206.11 287.4,213.08 290.64,212.01 					"/>
					<path id="XMLID_4364_" class="st40" d="M284.35,220.93c-2.62-0.34-8.03-1.93-8.88-4.15c0,0,0.29,1.4,1.91,2.83
						c1.62,1.43,6.96,3.04,6.96,3.04L284.35,220.93z"/>
				</g>
			</g>
		</g>
		<g id="XMLID_4067_">
			<path id="XMLID_4359_" class="st36" d="M252.35,261.03c0,0,6.42,9.12,7.52,10.31c1.1,1.19,1.85,0.8,3.05,0.26
				c1.19-0.53,3.46-1.21,4.46-1.46c1.96-0.49,2.38,1.32,0.44,2.62c-1.4,0.93-3.01,1.34-2.34,2.11c0.67,0.77,2.75,2.11,4.68,2.87
				c4.74,1.87,4.37,2.81,3.5,4.34c-0.76,1.34-2.97,4.22-11.44,0.81c-3.49-1.4-8.42-5.39-10.74-7.96
				c-3.35-3.71-8.57-10.36-8.57-10.36L252.35,261.03z"/>
			<path id="XMLID_4358_" class="st6" d="M265.89,226.67c-2.32,0.16-6.69,0.71-12.17,9.81c-4.81,7.98-12.25,18.81-13.64,22.68
				c-0.56,1.56,1.62,4.82,4.43,8.15c3.84-0.17,7.33-2.82,9.14-4.94c-0.84-1.94-1.77-3.21-1.77-3.21l11.24-12.82
				c0,0,4.27-3.91,5.16-9.03C269.24,231.82,268.94,227.48,265.89,226.67z"/>
		</g>
		<g id="XMLID_3993_">
			<g id="XMLID_4063_">
				<linearGradient id="XMLID_23_" gradientUnits="userSpaceOnUse" x1="293.4779" y1="263.2556" x2="328.8196" y2="263.2556">
					<stop  offset="0.0229" style="stop-color:#890000"/>
					<stop  offset="1" style="stop-color:#880000"/>
				</linearGradient>
				<polygon id="XMLID_4065_" class="st41" points="328.82,243.93 301.11,251.23 293.48,282.58 319.83,274.93 				"/>
				<linearGradient id="XMLID_24_" gradientUnits="userSpaceOnUse" x1="293.4779" y1="263.2556" x2="328.8196" y2="263.2556">
					<stop  offset="0.0274" style="stop-color:#FFFFFF"/>
					<stop  offset="0.9955" style="stop-color:#FFFFFF"/>
				</linearGradient>
				<polygon id="XMLID_4064_" class="st42" points="328.82,243.93 301.11,251.23 293.48,282.58 319.83,274.93 				"/>
			</g>
			<g id="XMLID_4061_" class="st43">
				<path id="XMLID_4062_" d="M316.3,266.13c0.26,0.7,1.96,3.25,5.18,3.1l0.2-0.69L316.3,266.13z"/>
			</g>
			<g id="XMLID_4055_" class="st43">
				<path id="XMLID_4056_" d="M320.47,248.91c0,0,0.1-0.47,0.23-1.06c0.13-0.58-1.5-0.61-3.63-0.06l-4.08,1.06
					c-2.13,0.55-3.96,1.47-4.09,2.06l-0.23,1.06L320.47,248.91z"/>
			</g>
			<g id="XMLID_4000_">
				<path id="XMLID_4001_" class="st4" d="M322.6,244.94c0.08-0.36-0.58-0.46-1.47-0.21l-1.62,0.45c0,0,0.48-2.29-3.11-1.49
					c-3.59,0.8-4.37,3.39-4.37,3.39s-0.77,0.22-1.73,0.49s-1.82,0.78-1.93,1.15l-0.2,0.66l14.28-3.76
					C322.45,245.61,322.52,245.3,322.6,244.94z"/>
			</g>
			<g id="XMLID_3998_">
				<path id="XMLID_3999_" class="st4" d="M320.63,246.06c-1.31,0.32-1.85,0.49-2.05,1.39c-0.22,1.03-0.31,1.78-0.31,1.78
					l-6.32,1.67c0,0,0.31-1.3,0.4-1.81c0.1-0.51-0.12-0.81-1.12-0.55l-0.09-0.4l9.9-2.52L320.63,246.06z"/>
			</g>
			<g id="XMLID_3996_">
				<path id="XMLID_3997_" class="st4" d="M320.85,249.01c0,0,0.1-0.47,0.23-1.06c0.13-0.58-1.5-0.61-3.63-0.06l-4.08,1.06
					c-2.13,0.55-3.96,1.47-4.09,2.06l-0.23,1.06L320.85,249.01z"/>
			</g>
			<g id="XMLID_3994_">
				<path id="XMLID_3995_" class="st36" d="M325.9,253.99c0,0-1.04,3.55-1.27,4.39c-0.24,0.85-3.34,2.36-5.38,2.92
					c-2.04,0.56-4.27,1.22-3.3,4.07c0.89,2.63,4.24,3.23,5.95,3.15c1.71-0.07,4.04-1.71,4.96-4.33c1.17-3.35,0.54-6.94,1.01-8.9
					C328.33,253.34,326.92,252.83,325.9,253.99z"/>
			</g>
		</g>
	</g>
</g>
<g id="Character_1_1_">
	<g id="XMLID_4627_">
		<g id="XMLID_4729_">
			<path id="XMLID_4731_" class="st44" d="M220.93,254.83c-3.8-3.83-5.16-2.34-5.64,1.86c-0.35,3.1-1.27,5.13-1.27,5.13
				c-0.27-1.3-0.38-1.89-0.71-2.53c-0.66-1.28-1.78-1.31-2.26-1.11c-0.37,0.16,0.09,1.05,0.03,2.67c-0.07,2.08-0.75,3.24-0.26,5.45
				c0.18,0.83,0.03,1.69-0.37,2.44c-2.05,3.79-8.59,10.82-13.2,15.87c-4.08-3.68-13.19-11.92-17.56-15.85
				c-5.99-5.4-7.94-7.83-13.73-7.43c0,0,2.24,0.68,4.93,2.95c2.68,2.27,2.04,15.26,2.04,15.26s19.92,14.29,21.97,15.65
				c0.3,0.2,0.61,0.38,0.91,0.54c2,1.06,4.48,0.56,5.97-1.15c4.25-4.86,10.45-14.43,14.03-19.4c1.68-2.33,3.31-5.52,4.33-7.54
				C223.7,260.61,223.31,257.23,220.93,254.83z"/>
			<path id="XMLID_4730_" class="st7" d="M166.55,260.97c0,0,4.04-1.06,8.01,1.96c3.42,2.59,17.96,15.97,17.96,15.97
				s0.4,7.08-7,11.31l-17.88-12.61L166.55,260.97z"/>
			<linearGradient id="XMLID_25_" gradientUnits="userSpaceOnUse" x1="166.5451" y1="275.5022" x2="192.5243" y2="275.5022">
				<stop  offset="0.0229" style="stop-color:#F28F8F"/>
				<stop  offset="1" style="stop-color:#FFA8A7"/>
			</linearGradient>
			<path id="XMLID_2372_" class="st45" d="M166.55,260.97c0,0,4.04-1.06,8.01,1.96c3.42,2.59,17.96,15.97,17.96,15.97
				s0.4,7.08-7,11.31l-17.88-12.61L166.55,260.97z"/>
		</g>
		<g id="XMLID_4680_">
			<rect id="XMLID_4728_" x="141.73" y="420.96" class="st44" width="7.57" height="13.5"/>
			<polygon id="XMLID_4727_" class="st44" points="167.98,420.24 175.55,420.51 175.93,406.22 167.98,405.95 			"/>
			<path id="XMLID_4726_" class="st4" d="M140.66,304.07c0,7.53,1.11,68.13,1.11,68.13c-0.18,2.17-2.13,6.16-1.7,14.48
				c0.57,11.31,1.34,41.02,1.34,41.02s3.68,2.24,8.43,0.17c0,0,7.16-41.15,8.52-52.35c1.18-9.78,3.19-42.7,3.19-42.7l4.1,38.28
				c0,0-1.4,5.83-0.94,12.53c0.35,5.18,2.79,32.17,2.79,32.17s3.56,2.52,8.74,0.7c0,0,4.31-40.65,4.39-45.4
				c0.1-5.42-2.52-67.12-2.52-67.12L140.66,304.07z"/>
			<path id="XMLID_4725_" class="st10" d="M149.3,430.56v-1.13c0.72,0.33,2.41,7.02,5.41,9.87c2.39,2.27,5.65,4.89,6.47,7.42
				c0.86,2.63-4.54,4.08-6.77,3.67c-2.59-0.48-7.09-2.38-8.21-4.14c-1.13-1.76-1.66-4.36-2.57-5.65c-0.92-1.29-3.03-2.73-3.53-4.23
				c-0.27-0.82,0.05-2.62,0.43-4.14c0.35-1.39,0.73-2.93,1.19-2.8c0,0.17,0,0.86,0,0.86c0.55,0.63,2.07,1.26,3.79,1.33
				C146.62,431.67,149.31,431.44,149.3,430.56z"/>
			<path id="XMLID_4682_" class="st10" d="M175.63,418.08c0.39,0.01,0.71,0.59,1.58,1.57c1.05,1.18,2.76,2.46,4.45,3.34
				c2.84,1.48,8.35,3.75,10.84,4.92c1.56,0.73,1.49,2.69-0.13,3.81c-1.61,1.12-5.5,1.92-10.17,0.83c-2.54-0.59-5.86-3.04-7.95-2.91
				c-2.1,0.13-6.02,0.1-7.57-1.01c-1.55-1.11-0.93-3.48-0.49-5.52c0.48-2.23,1.07-5.69,1.78-5.54v0.77
				c0.91,1.44,5.61,2.02,7.61,0.96L175.63,418.08z"/>
			<path id="XMLID_4681_" class="st10" d="M161.55,332.83c0,0,6.05-1.78,10.54-6.3c0,0-2.03,3.97-8.08,7.66l1.29,34.18
				L161.55,332.83z"/>
		</g>
		<g id="XMLID_4677_">
			<linearGradient id="XMLID_26_" gradientUnits="userSpaceOnUse" x1="139.078" y1="292.6305" x2="178.9877" y2="292.6305">
				<stop  offset="0.0229" style="stop-color:#F28F8F"/>
				<stop  offset="1" style="stop-color:#FFA8A7"/>
			</linearGradient>
			<path id="XMLID_4679_" class="st46" d="M144.6,263c0,0-5.93,0.54-5.5,11.83l1.31,17.98l-0.12,26.98
				c5.57,6.31,30.25,5.85,38.7-0.51c0,0-0.87-31.93-1.44-44.22c-0.41-8.74-2.42-13.13-11-14.1l-10.56,0.46L144.6,263z"/>
			<linearGradient id="XMLID_27_" gradientUnits="userSpaceOnUse" x1="161.4288" y1="273.9086" x2="165.9551" y2="273.9086">
				<stop  offset="8.684297e-07" style="stop-color:#990000"/>
				<stop  offset="0.4317" style="stop-color:#7F0000"/>
				<stop  offset="1" style="stop-color:#570000"/>
			</linearGradient>
			<polygon id="XMLID_4678_" class="st47" points="161.43,268.92 162.79,278.4 165.96,278.34 162.38,278.9 			"/>
		</g>
		<g id="XMLID_4674_">
			<path id="XMLID_4676_" class="st44" d="M125.81,301.76c3.07-24.7,10.14-36.97,18.75-38.42l-0.61,15.8c0,0-5.79,13.19-8.2,26.15
				c-1.13,6.08-2.44,16.65-2.1,21.85c0.06,0.92,0.47,1.78,1.1,2.42c1.7,1.73,2.21,3.23,3.35,5.19c0.89,1.53,1.81,2.07,1.58,2.44
				c-0.31,0.47-1.31,1.12-2.64,0.34c-0.67-0.39-1.47-1.19-2.46-2.22c0,0-0.25,3.81,1.24,6.88c2.02,4.15,1.68,6.35-3.9,5.12
				c-3.5-0.77-6.02-4.46-6.96-13.07c-0.27-2.48-0.3-6.49-0.17-9.65C125.13,316.35,125.2,306.7,125.81,301.76z"/>
			<path id="XMLID_4675_" class="st7" d="M145.05,262.93c-4.47-0.02-8.55,0.77-11.8,7.02c-3.11,5.99-5.51,18.69-6.71,22.84
				c0,0,6.53,3.86,12.54,3.77l4.23-14.68C143.31,281.87,146.17,275.02,145.05,262.93z"/>
			<linearGradient id="XMLID_28_" gradientUnits="userSpaceOnUse" x1="126.5408" y1="279.744" x2="145.3116" y2="279.744">
				<stop  offset="0.0229" style="stop-color:#F28F8F"/>
				<stop  offset="1" style="stop-color:#FFA8A7"/>
			</linearGradient>
			<path id="XMLID_2361_" class="st48" d="M145.05,262.93c-4.47-0.02-8.55,0.77-11.8,7.02c-3.11,5.99-5.51,18.69-6.71,22.84
				c0,0,6.53,3.86,12.54,3.77l4.23-14.68C143.31,281.87,146.17,275.02,145.05,262.93z"/>
		</g>
		<g id="XMLID_4646_">
			<path id="XMLID_4673_" class="st10" d="M154.28,237.51c0,6.48,5.05,11.74,11.27,11.74s11.27-5.26,11.27-11.74
				c0-6.48-5.05-11.74-11.27-11.74S154.28,231.02,154.28,237.51z"/>
			<g id="XMLID_4654_">
				<path id="XMLID_4672_" class="st10" d="M147.11,243.38c0,0,1.73,8.46,2.42,9.85c0.69,1.39,2.13,1.79,2.13,1.79l-0.12-5.95
					L147.11,243.38z"/>
				<path id="XMLID_4671_" class="st10" d="M149.28,231.26c0,0-1.24-0.31-2.56,1.75c-1.13,1.76-1.39,5.73,0.39,10.37l3.26,0.39
					L149.28,231.26z"/>
				<path id="XMLID_4670_" class="st44" d="M151.34,243.77c-0.65,0.41-1.58-0.9-2.39-1.78c-0.81-0.88-3.43-2.08-4.75,0.8
					c-1.34,2.93,1.16,6.81,3.23,7.49c3.57,1.17,4.1-1.22,4.1-1.22l0.27,13.4c4.74,7.32,15.46,7.06,11.6-0.35l-0.01-4.08
					c0,0,3.23,0.51,4.81,0.26c2.62-0.42,4.27-2.58,5.07-5.54c1.28-4.75,1.76-8.59,0.68-17.93c-1.19-10.24-12.62-10.35-18.8-6.3
					C148.99,232.58,151.34,243.77,151.34,243.77z"/>
				<path id="XMLID_4659_" class="st10" d="M151.75,259.46c0,0,1.67,3.6,4.64,5.81c2.73,2.03,5.61,2.38,5.61,2.38
					s-2.78,1.84-3.96,4.45c-1.18,2.61-9.51-4.57-9.44-9.65c0,0,1.31-5.11,3.1-5.44L151.75,259.46z"/>
				<path id="XMLID_4658_" class="st10" d="M161.99,267.66c0,0,2.57-1.28,1.42-5.55l-0.01-4.08l1.13,0.15
					c0.88,0.79,2.26,2.65,2.71,4.69c0.26,1.17,0.89,7.08-0.24,8.26C165.97,272.2,164.3,267.97,161.99,267.66z"/>
				<path id="XMLID_4657_" class="st10" d="M151.34,244.92c-0.33,0.01-1.58-2.15-2.39-2.92c-1.13-1.07,0.33-10.73,0.33-10.73
					s-1.08-2.4,1.09-4.89c1.54-1.77,4.12-1.97,8.52-2.69c1.72-0.28,3.55-0.47,5.22-0.94c1.79-0.51,3.55-1.69,5.22-2.54
					c0.55-0.28,1.17-0.57,1.77-0.41c0.57,0.15,0.97,0.7,1.12,1.28c0.15,0.58,0.09,1.18,0.03,1.77c1.02-1.13,3.01-0.96,4.05,0.14
					c1.04,1.11,1.19,2.86,0.63,4.27s-1.69,2.53-2.95,3.38c-5.53,3.74-12.06,2.7-18.26,1.96c-0.3-0.04-0.61-0.07-0.88,0.06
					c-0.97,0.44-1.18,3.45-1.35,4.32C152.92,239.92,152.44,244.9,151.34,244.92z"/>
				<path id="XMLID_4656_" class="st10" d="M149.28,231.77l-3.95-2.21c0.56-1.18,1.9-1.64,2.99-1.03
					C149.41,229.14,149.84,230.59,149.28,231.77z"/>
				<path id="XMLID_4655_" class="st49" d="M163.4,258.03c0,0-5.86-1.23-7.9-2.36c-1.37-0.76-2.5-2.07-2.83-2.92
					c0,0,0.38,1.81,1.61,3.44c1.5,1.99,9.12,3.46,9.12,3.46L163.4,258.03z"/>
			</g>
			<g id="XMLID_4647_">
				<path id="XMLID_4653_" class="st10" d="M161.28,241.9c0,0.7-0.53,1.27-1.17,1.27c-0.65,0-1.17-0.57-1.17-1.27
					c0-0.7,0.53-1.27,1.17-1.27C160.76,240.63,161.28,241.2,161.28,241.9z"/>
				<path id="XMLID_4652_" class="st10" d="M159.27,236.82l-2.51,1.44c-0.37-0.75-0.11-1.68,0.58-2.08
					C158.04,235.78,158.9,236.07,159.27,236.82z"/>
				<path id="XMLID_4651_" class="st49" d="M162.87,250.69l2.68,1.05c-0.26,0.8-1.08,1.21-1.82,0.92
					C162.99,252.37,162.61,251.49,162.87,250.69z"/>
				<path id="XMLID_4650_" class="st10" d="M173.01,238.22l-2.64-1.29c0.3-0.77,1.14-1.1,1.87-0.75
					C172.97,236.54,173.31,237.45,173.01,238.22z"/>
				<path id="XMLID_4649_" class="st10" d="M171.27,241.9c0,0.7-0.53,1.27-1.17,1.27c-0.65,0-1.17-0.57-1.17-1.27
					c0-0.7,0.53-1.27,1.17-1.27C170.74,240.63,171.27,241.2,171.27,241.9z"/>
				<polygon id="XMLID_4648_" class="st49" points="164.62,240.99 164.75,248.4 168.96,247.44 				"/>
			</g>
		</g>
		<g id="XMLID_4628_">
			<g id="XMLID_4638_">
				<path id="XMLID_4642_" class="st10" d="M159.47,238.84c-1.59,0-2.88,1.31-2.88,2.93c0,1.62,1.29,2.93,2.88,2.93H160
					c1.59,0,2.88-1.31,2.88-2.93c0-1.62-1.29-2.93-2.88-2.93H159.47z M156.01,241.77c0-1.94,1.55-3.53,3.46-3.53l0.53,0
					c1.91,0,3.46,1.58,3.46,3.53c0,1.94-1.55,3.53-3.46,3.53h-0.53C157.56,245.29,156.01,243.71,156.01,241.77z"/>
			</g>
			<g id="XMLID_4634_">
				<path id="XMLID_4635_" class="st10" d="M170.02,238.84c-1.59,0-2.88,1.31-2.88,2.93c0,1.62,1.29,2.93,2.88,2.93l0.53,0
					c1.59,0,2.88-1.31,2.88-2.93c0-1.62-1.29-2.93-2.88-2.93H170.02z M166.56,241.77c0-1.94,1.55-3.53,3.46-3.53h0.53
					c1.91,0,3.46,1.58,3.46,3.53c0,1.94-1.55,3.53-3.46,3.53h-0.53C168.11,245.29,166.56,243.71,166.56,241.77z"/>
			</g>
			<path id="XMLID_4633_" class="st10" d="M163.42,241.07c0.32-0.54,1.04-0.91,1.83-0.95c0.68-0.04,1.28,0.19,1.59,0.61l0.46-0.36
				c-0.44-0.59-1.2-0.89-2.09-0.85c-0.99,0.05-1.87,0.52-2.3,1.23L163.42,241.07z"/>
			<rect id="XMLID_4632_" x="150.36" y="241.04" class="st10" width="5.96" height="0.59"/>
		</g>
	</g>
</g>
</svg>
